<svg width="894" height="869" viewBox="0 0 894 869" fill="none" xmlns="http://www.w3.org/2000/svg">
<path d="M452.789 423.483L452.714 423.702L451.86 426.466L446.092 435.616L444.615 453.952L441.231 459.737L441.323 471.033L444.689 476.09L440.03 487.805L439.174 503.957L434.899 507.014L434.642 505.522L431.476 505.886L429.856 504.412L425.07 505.886L422.904 510.342L409.291 524.312L414.225 535.3L429.82 557.365L430.093 597.274L430.293 627.197V627.816L198.632 563.113L186.367 563.859L162.399 572.462L131.604 548.506L155.191 540.811L168.295 528.169L194.102 528.587L199.633 516.363L212.701 498.682L216.922 495.081L223.931 492.206L237.926 493.225L241.164 491.296L247.207 471.361L245.097 469.087L251.212 449.75L262.403 436.052L265.553 429.214L277.454 420.245L289.885 403.328L313.98 396.743L334.347 395.907L336.803 393.814L358.462 414.169L365.741 416.298L371.802 418.662H377.878L382.427 421.155L388.434 422.974H394.86L400.011 421.755L403.05 420.536L407.907 418.662L415.79 415.388L428.529 415.079L433.079 416.898L445.234 415.697L450.675 418.662L452.789 423.483Z" fill="#F27C10" stroke="white" stroke-width="0.75" stroke-linecap="round"/>
<path d="M441.534 73.6974L441.996 70.4977L439.689 68.8442L438.447 65.921L438.915 63.9219L437.459 64.2475L436.222 62.9687L436.214 61.1151L438.635 59.5053L435.306 58.5303L437.483 56.4038L434.76 53.4533L434.997 51.3214L439.054 48.3382L441.052 43.8507L433.168 45.0385L428.31 43.7888L425.417 45.9735L417.758 46.5447L412.198 48.6948L410.397 51.7635L404.728 54.0336L402.908 60.0055L406.648 60.5894L410.602 59.1324L411.452 62.5776L412.43 62.6158L410.925 65.6845L411.851 65.3989L412.795 69.0316L416.026 67.8255L415.394 68.2694L416.474 68.344L417.458 70.4886L420.303 72.2804L425.468 70.8015L429.421 76.7806L429.53 74.2085L430.472 73.6028L429.774 72.9698L433.89 71.842L433.956 70.2685L436.174 68.1511L438.06 71.5637L441.534 73.6974Z" fill="#F27C10" stroke="white" stroke-width="0.75" stroke-linecap="round"/>
<path d="M550.536 209.273L526.732 207.636L525.332 208.4L520.454 206.381L518.795 207.091L518.25 206.163L517.488 207.527L516.687 206.945L514.975 208.291L500.689 208.946L507.348 213.003L507.95 218.278L492.39 214.567L482.615 217.495L462.907 219.224L457.247 207.273L457.518 204.49L456.354 202.889L463.617 202.634L463.997 195.54L460.212 196.359L453.808 194.303L454.189 191.247L448.51 190.737L449.022 185.535L450.514 182.934L448.439 181.097L448.22 179.296L445.562 178.55L446.017 173.711L444.98 170.892L441.65 168L435.298 169.491L432.367 166.235L428.347 164.472L428.636 162.67L427.073 160.014L431.077 157.358L429.6 154.902L436.462 150.864L436.974 152.92L439.958 151.156L440.614 146.717L443.96 142.915L452.842 139.732L457.12 135.057L460.724 133.456L461.505 131.546L467.002 130.873L468.021 142.388L470.296 148.918L471.097 148.772L477.248 157.431L479.43 158.031L483.544 156.085L484.817 156.558L484.764 153.92L488.895 149.755L491.533 151.137L491.316 151.919L493.591 151.137L497.923 163.343L497.649 165.544L500.58 171.365L510.116 174.111L517.358 180.642L519.924 184.88L534.72 190.446L537.433 192.375L544.73 199.505L550.536 209.273Z" fill="#F27C10" stroke="white" stroke-width="0.75" stroke-linecap="round"/>
<path d="M671.005 68.9587L672.281 69.6609L673.249 73.5118L676.188 74.856L674.783 76.1093L675.038 78.0975L677.424 82.9344L670.059 85.883L666.639 90.9727L665.503 91.1782L664.302 89.2664L663.043 89.1573L662.437 86.9908L661.721 86.4196L660.629 87.5129L660.955 86.4596L658.566 84.777L657.819 87.3237L655.912 87.8839L656.029 83.9476L652.807 82.3541L652.591 83.3509L649.286 82.8616L647.544 86.516L644.543 85.6374L645.289 83.7893L644.17 82.8252L636.832 83.9312L635.423 81.0298L631.587 76.6405L628.731 75.3381L623.87 77.5482L623.23 76.6078L624.074 75.9074L623.1 75.2435L623.757 73.5736L619.013 73.0897L618.814 72.022L615.994 74.414L611.566 72.0529L613.027 68.2093L616.03 67.7982L617.331 68.7259L616.944 67.3234L618.367 67.5344L620.585 64.7458L620.88 59.6689L625.186 58.0991L624.493 58.894L625.574 61.0041L627.412 61.6753L626.567 60.2128L628.609 61.3097L629.292 59.3651L633.374 59.0759L633.853 56.4492L636.484 58.5702L643.074 58.6903L642.707 60.975L645.009 61.9773L644.652 63.7181L646.468 64.02L651.537 61.5243L652.78 58.2955L655.068 58.1573L655.837 62.2738L657.177 62.3556L658.36 66.212L660.227 68.6331L665.092 70.343L665.035 73.0315L670.159 72.6423L669.514 69.8464L671.005 68.9587Z" fill="#F27C10" stroke="white" stroke-width="0.75" stroke-linecap="round"/>
<path d="M629.808 123.552L628.654 119.65L630.13 118.204L629.016 117.323L629.924 116.268L627.477 112.164L626.017 111.899L626.747 110.364L625.948 107.906L628.326 105.305L627.908 100.512L630.898 97.9724L628.985 97.574L629.306 94.9582L628.155 92.5335L630.871 90.0123L635.27 88.9245L636.385 86.1705L635.037 83.4583L635.426 81.0244L631.59 76.6351L628.734 75.3327L623.873 77.5428L623.232 76.6024L624.077 75.902L623.103 75.2381L623.76 73.5682L619.016 73.0843L618.817 72.0166L615.996 74.4086L611.568 72.0475L605.048 71.2871L604.156 71.9838L602.4 73.0207L603.21 75.1362L598.103 70.7378L595.893 71.3144L593.302 74.1503L593.522 75.5582L595.728 76.2913L594.286 78.6597L593.047 78.2249L592.133 79.209L587.958 77.4846L587.518 78.7306L586.069 78.5887L583.554 80.5751L583.98 82.396L582.56 85.5957L580.509 84.9899L575.667 90.3797L572.36 92.0278L571.048 90.085L569.115 90.0632L567.608 91.7385L567.473 90.307L565.728 93.0464L562.188 89.9577L563.684 97.9633L562.994 102.595L561.327 105.409L560.372 105.07L558.213 107.204L558.566 108.306L563.897 108.415L567.766 110.957L568.829 110.336L572.502 112.095L573.83 114.1L575.681 113.241L578.416 114.531L579.43 114.386L580.051 112.365L587.169 112.181L590.421 110.445L590.716 108.748L589.522 106.975L586.874 106.465L586.29 104.734L590.323 105.01L596.802 100.648L601.928 104.07L605.31 103.671L601.22 107.53L603.029 110.027L601.524 112.619L602.915 112.235L604.689 115.45L608.808 110.293L610.673 110.998L610.518 113.154L614.395 114.426L615.642 111.792L619.389 111.317L622.393 109.294L624.743 112.252L623.322 114.3L624.241 116.017L623.447 120.638L627.917 124.223L629.808 123.552Z" fill="#F27C10" stroke="white" stroke-width="0.75" stroke-linecap="round"/>
<path d="M556.294 48.1654L555.682 50.21L552.014 51.8817L551.95 56.4111L544.344 58.4084L542.93 55.3142L543.334 54.221L541.969 52.4201L543.32 51.5324L543.593 49.1586L542.359 46.7484L545.625 45.2367L549.591 40.7928L548.85 39.5905L551.142 36.7146L547.906 34.9974L548.175 33.8223L550.412 33.1674L551.695 34.1479L552.916 32.9583L552.791 30.5244L550.244 26.9736L556.818 26.2351L563.006 28.1651L566.715 30.7827L570.12 31.4448L569.314 34.5645L574.566 37.4058L582.439 36.8419L582.492 39.2357L584.161 39.5905L583.828 42.2772L579.482 44.229L579.939 45.4714L577.545 48.1508L578.401 49.8243L577.039 50.5065L574.026 50.9449L574.073 49.2441L573.036 49.6042L573.079 44.7092L574.053 43.4468L570.124 40.7819L570.055 41.5969L568.364 41.4368L567.552 43.9434L560.962 43.0703L560.875 45.5241L556.294 48.1654Z" fill="#F27C10" stroke="white" stroke-width="0.75" stroke-linecap="round"/>
<path d="M636.091 134.147L634.18 137.858L635.127 141.369L631.978 145.353V145.371L628.975 146.426L626.336 143.879L615.908 140.168L606.244 142.533L606.117 142.515L584.532 140.223L580.529 137.567L579.473 134.857V132.128L577.871 130.364L575.596 128.672L575.324 126.78L573.613 125.307L572.248 121.723C572.248 121.723 568.717 121.596 565.459 121.432L567.352 120.869L568.59 117.976L569.572 117.849L568.572 117.303L567.771 110.955L568.826 110.336L572.503 112.083L573.831 114.102L575.688 113.229L578.417 114.52L579.437 114.375L580.055 112.355L587.171 112.174L590.429 110.445L590.72 108.736L589.519 106.971L586.88 106.462L586.298 104.734L590.32 105.007L596.799 100.641L601.931 104.061L605.316 103.66L601.221 107.517L603.023 110.027L601.531 112.61L602.914 112.228L604.697 115.448L608.81 110.282L610.667 110.991L610.521 113.156L614.398 114.429L615.635 111.792L619.384 111.319L622.387 109.281L624.753 112.246L623.315 114.302L624.243 116.012L623.443 120.632L627.92 124.216L629.812 123.543V123.561L631.778 122.451L633.125 119.341L635.199 119.213L634.471 120.086L636.382 121.996L635.618 123.815L637.11 123.452L635.8 127.799L636.091 134.147Z" fill="#F27C10" stroke="white" stroke-width="0.75" stroke-linecap="round"/>
<path d="M388.434 316.834L388.09 317.234L379.846 315.905L376.767 314.214H361.298L358.568 310.339H354.821L349.468 305.337H344.812L343.098 306.81L333.089 307.156L330.359 309.084L324.228 309.32L322.973 310.685L315.129 311.486L312.614 308.52L307.284 309.193L304.773 310.903H285.1L283.28 312.958L265.645 312.722L256.545 321.253H250.976L248.246 319.998L245.732 321.926L244.151 323.31H237.89L235.961 324.782H231.628V326.71H226.732L226.061 325.129L224.912 319.434L223.438 317.852L222.931 313.886L226.805 312.432L227.861 311.031L226.022 307.92L227.316 304.41L228.117 304.9L231.32 300.88L231.43 297.005L231.066 295.805L230.156 296.751L229.443 296.005L228.625 293.113L227.771 293.458L227.751 294.004L226.552 294.386L227.426 294.823L226.022 294.532L226.459 291.548L225.296 290.348L225.078 292.149L223.966 291.677L224.041 293.022L222.876 292.586L222.221 293.696L223.021 290.058L221.875 287.384L223.201 286.182L222.203 284.763L223.786 281.672L224.823 282.581L227.935 280.308L227.715 269.139L261.112 262.808L257.235 251.839L258.345 247.765L270.866 248.51L276.345 246.509L283.715 246.346L287.881 247.691L294.142 246.037L311.249 250.711L324.644 251.749L328.084 249.438L325.864 247.218L322.426 247.637L324.719 245.763L324.573 240.089L326.667 236.577L329.449 236.087L329.74 240.434L332.344 240.652L331.36 245.872L333.872 245.946L334.418 248.783L345.028 243.144L357.386 246.601L360.68 244.182L365.067 245.128L368.034 240.761L366.303 248.746L362.518 247.873L360.517 249.365L358.607 253.403L358.352 261.008L359.588 265.154L358.332 265.263V265.282L358.66 267.028L357.57 268.575L359.298 270.72L357.04 272.922L359.315 276.578L357.478 278.761L357.531 282.162L359.077 285.473L364.394 289.748L362.902 295.168L388.434 316.834Z" fill="#F27C10" stroke="white" stroke-width="0.75" stroke-linecap="round"/>
<path d="M501.8 45.7041L502.249 43.3793L501.184 42.8882L501.883 42.1351L501.028 40.5762L502.003 39.7049L500.391 40.3397L499.015 37.9568L497.179 39.3593L496.069 38.8081L494.791 42.0951L492.756 42.2315L492.953 40.2633L490.239 42.2097L483.376 39.3302L483.993 41.191L480.151 42.2806L477.463 45.2766L475.534 45.5312L476.34 46.9901L475.525 48.1543L472.671 47.6049L470.784 50.268L476.231 54.0989L478.978 52.1216L484.243 52.4927L487.096 50.3517L488.317 53.093L491.011 53.1075L492.591 51.3485L492.247 48.8783L493.108 50.6173L494.442 49.5331L495.703 50.8028L497.812 48.7036L497.963 46.1916L500.93 46.6809L501.8 45.7041Z" fill="#F27C10" stroke="white" stroke-width="0.75" stroke-linecap="round"/>
<path d="M531.464 67.0432L534.136 64.9823L534.472 60.6439L537.581 59.0777L539.028 56.8184L541.505 56.9858L542.93 55.3159L543.334 54.2227L541.969 52.4218L543.319 51.5342L543.592 49.1603L542.358 46.7501L537.783 47.234L537.284 46.2626L535.448 47.2485L525.158 47.545L522.732 46.9465L521.028 43.9688L519.605 44.0416L517.984 41.7914L509.403 40.5017L508.529 42.2916L506.043 43.5904L502.243 43.3758L501.793 45.7005L506.747 50.4828L509.586 47.7906L512.058 49.0712L511.261 50.319L513.073 52.8493L511.126 53.9371L510.322 56.24L512.269 58.019L511.94 59.4906L509.344 60.2437L508.929 61.7971L510.123 63.6926L509.381 64.5748L507.745 66.2756L505.899 66.2483L506.771 67.669L511.845 68.4584L514.406 73.2771L515.374 71.8073L518.171 72.0856L519.363 73.7664L521.314 74.1702L521.949 75.9983L523.411 76.0857L525.72 73.8773L530.346 75.4963L529.538 72.9769L531.464 67.0432Z" fill="#F27C10" stroke="white" stroke-width="0.75" stroke-linecap="round"/>
<path d="M810.951 684.133L706.195 760.369C703.702 758.587 701.336 756.84 700.826 756.24C699.698 754.858 690.143 747.145 690.143 747.145H685.357L683.319 748.964L679.224 748.273L662.608 736.231H651.47L649.195 740.778L647.138 747.581L644.408 754.184L641.678 759.642V767.591H618.929L614.161 762.37L596.653 762.607L587.08 756.458L579.582 756.004L575.724 754.639L571.847 756.913L570.264 763.516L571.611 767.591L570.264 771.229L568.207 779.651L560.254 781.233L550.918 790.565H542.965L540.453 787.837L541.582 778.978L542.728 776.249V771.229L540.453 768.5V764.426L536.814 759.878L529.989 757.823L526.804 754.858L518.159 754.421L513.373 747.818L507.913 747.363L505.42 739.177L502.235 733.029L499.505 726.444L495.865 725.316L493.353 729.391L464.708 729.173L463.161 730.937L444.979 731.21L444.761 730.191L436.717 729.336L429.146 730.555L430.293 627.816V627.198L430.092 597.275L447.527 583.304L449.347 576.938L452.405 562.167L453.206 558.293L454.571 551.708L457.537 548.634L461.068 551.471L467.201 550.343L471.077 553.636L478.466 554.764L483.58 560.112L502.235 559.439L508.04 552.617L512.809 552.508V560.457L513.955 562.84H519.633L521.562 561.476L524.638 562.84L535.103 552.617L529.534 543.176L529.88 539.084L532.719 536.701L531.354 529.079L529.534 527.26L526.458 522.367L528.515 520.784L533.519 525.55L538.178 524.877L552.738 509.179L564.568 508.506C564.568 508.506 566.733 510.325 567.407 510.67C568.098 510.998 569.791 510.67 569.791 510.67L571.957 506.687L575.724 505.777L584.696 496.682V492.244L587.553 489.97L593.232 482.002L591.193 476.891V473.035L595.052 468.596L597.326 464.958L609.957 465.304L610.284 466.85L610.357 482.694L633.434 503.085L634.198 506.578L629.066 510.852L627.137 516.419L629.285 519.238L633.379 520.329L633.634 522.167L636.419 524.222L647.211 553.581L656.42 564.75L659.386 572.336L666.102 583.686L671.252 587.652L679.406 587.907L689.579 602.513L689.142 609.389L691.035 629.29L701.19 651.773L697.605 655.847L708.961 663.833L740.228 656.266L763.687 638.767L788.984 637.275L792.005 639.131L796.027 639.04L809.64 646.734L810.951 684.133Z" fill="#F27C10" stroke="white" stroke-width="0.75" stroke-linecap="round"/>
<path d="M696.24 112.064L693.692 113.538L695.385 120.305L696.986 122.087L694.02 124.47L695.658 125.907L693.146 128.399L693.565 129.654L691.563 129.855L689.56 132.892L679.824 138.331L678.477 146.044L663.445 145.298L655.691 142.588L657.092 133.347L660.933 126.18L660.988 123.089L659.822 121.36L661.187 117.703L659.604 113.374L657.293 113.192L656.092 114.957L655.291 117.412L656.201 117.139L656.038 120.033L654.381 116.194L656.91 109.627L659.277 108.153L661.879 103.715L659.969 100.878L661.406 98.7318L660.023 97.6758L659.805 93.2374L665.5 91.1819L666.647 90.9636L670.05 85.8885L677.422 82.9425V82.9234L675.038 78.103L674.782 76.1021L676.184 74.8469L673.253 73.5199L672.271 69.6627L670.998 68.9533L671.725 66.4794L675.147 69.026L678.094 68.9724L681.917 64.6976L684.209 64.9696L688.759 62.9504L692.709 64.915L691.508 67.2616L692.364 68.0083L692.309 75.5745L695.876 78.103L696.458 84.9971L697.569 86.7616L695.039 90.236L695.166 94.9664L698.934 97.9123L701.718 98.0396L697.441 104.916L696.24 112.064Z" fill="#F27C10" stroke="white" stroke-width="0.75" stroke-linecap="round"/>
<path d="M337.101 111.202L335.852 111.329L335.376 109.674L329.026 106.494L328.423 107.095L327.746 105.69L325.779 106.518L321.524 105.076L319.853 107.506L317.882 107.986L315.969 106.771L316.337 105.036L314.796 103.902L307.52 109.227L306.297 108.581L302.342 110.706L296.068 111.157L292.723 109.621L290.6 110.374L290.412 112.103L295.148 116.557L297.069 118.014L299.596 117.618L299.645 120.328L302.587 122.074L302.749 123.681L308.442 126.802L303.891 132.639L305.29 133.211L307.783 137.542L310.122 138.6L306.266 143.268L309.145 147.19L308.757 150.477L310.937 157.309L317.507 152.543L326.594 152.583L328.826 150.022L331.608 149.144L342.697 138.897L342.038 137.454L340.297 137.094L343.225 135.364L345.564 130.357L345.145 129.109L346.049 129.174L345.551 127.346L341.228 127.839L342.016 122.029L339.874 122.467L341.336 120.403L339.168 120.319L338.247 116.996L340.637 113.127L337.101 111.202Z" fill="#F27C10" stroke="white" stroke-width="0.75" stroke-linecap="round"/>
<path d="M455.744 91.2692L453.329 91.7458L453.732 94.2852L466.065 101.756L467.976 105.099L472.866 100.917L474.779 102.365L475.376 104.412L478.557 105.172L478.543 107.939L477.309 108.41L475.269 112.505L477.871 114.828L471.996 117.147L469.363 125.625L466.688 126.46L466.993 130.875L461.508 131.554L460.716 133.453L457.117 135.064L452.845 139.73L443.969 142.919L440.623 146.717L439.958 151.152L436.966 152.929L436.469 150.857L429.599 154.91L431.07 157.357L427.075 160.012L425.038 157.144L424.645 153.791L414.561 154.328L415.784 145.447L408.555 143.943L411.569 138.655L406.157 136.429L405.581 135.463L406.955 134.497L406.137 132.35L404.206 133.183L401.055 127.608L401.756 124.501L400.744 122.822L406.499 118.586L403.596 114.16L401.043 113.01L400.531 111.208L394.531 111.913L396.482 108.694L399.306 106.693L398.859 104.967L400.997 102.402L402.968 102.109L405.736 103.544L407.76 102.904L409.349 99.0729L410.603 98.5617L407.889 95.735L409.529 95.4075L412.672 90.1724L414.881 89.9959L415.085 88.417L416.561 88.6171L416.86 86.9563L420.605 87.3329L421.639 85.5393L424.276 84.4988L426.724 87.5366L427.796 83.3564L430.105 85.0481L431.084 84.497L433.547 85.8867L433.658 88.4607L437.212 88.1441L439.114 91.2711L440.593 91.553L440.906 89.6485L442.65 91.4166L449.56 90.6308L453.99 88.1987L452.973 89.4193L455.794 89.5412L455.744 91.2692Z" fill="#F27C10" stroke="white" stroke-width="0.75" stroke-linecap="round"/>
<path d="M550.246 26.9754L552.792 30.5262L552.918 32.96L551.697 34.1497L550.414 33.1692L548.177 33.8241L547.908 34.9992L551.144 36.7164L548.852 39.5922L549.593 40.7946L545.627 45.2385L542.361 46.7501L537.785 47.234L537.287 46.2626L535.45 47.2486L525.16 47.5451L522.734 46.9466L521.031 43.9688L519.608 44.0416L517.986 41.7915L517.589 38.71L520.166 38.1261L521.704 39.203L521.404 36.8582L523.872 37.4276L522.467 35.8578L523.169 33.2365L525.066 33.6567L525.393 32.5562L527.111 32.4162L527.193 30.9973L529.657 28.8818L529.412 26.628L539.31 26.0441L542.679 26.819L544.473 25.824L550.246 26.9754Z" fill="#F27C10" stroke="white" stroke-width="0.75" stroke-linecap="round"/>
<path d="M504.146 32.6363L503.652 33.7441L504.85 33.353L504.904 35.2084L500.759 36.5636L499.557 35.685L500.267 36.9619L499.013 37.9551L497.177 39.3576L496.067 38.8064L494.789 42.0934L492.755 42.2299L492.951 40.2617L490.238 42.208L483.375 39.3285L483.129 36.6964L484.239 33.7586L485.877 33.4421L486.374 31.7249L488.567 31.2975L491.901 31.4575L492.798 33.6422L494.913 34.5972L498.769 33.4658L499.055 31.1101L504.146 32.6363Z" fill="#F27C10" stroke="white" stroke-width="0.75" stroke-linecap="round"/>
<path d="M572.52 184.989L568.117 194.321L572.138 215.131L550.536 209.273L544.729 199.505L537.433 192.375L534.72 190.446L519.924 184.88L517.379 180.642H517.358L510.116 174.111L500.58 171.365L497.649 165.544L497.923 163.343L493.591 151.137L491.316 151.919L491.533 151.137L488.895 149.755L484.764 153.92L484.817 156.558L483.544 156.085L479.43 158.031L477.248 157.431L471.097 148.772L470.296 148.918L468.021 142.388L467.002 130.873L466.691 126.453L469.369 125.634L472.007 117.158L477.866 114.829L475.262 112.501L477.302 108.408L478.539 107.935L478.556 105.17L475.372 104.406L474.771 102.37L472.861 100.914L467.983 105.097L466.074 101.75L453.733 94.2923L453.334 91.7456L455.737 91.2736L462.47 90.6906L463.669 95.0017L467.566 94.6924L472.078 93.2199L472.496 92.2004L477.392 95.6756L479.759 94.4569L482.671 89.7992L486.002 87.3254L487.056 87.7983L485.819 78.6849L490.534 77.4116L491.79 81.6509L493.063 81.3962L493.409 85.3972L498.467 84.1248L499.853 81.6318L499.651 79.4317L501.525 77.5753L503.089 80.7041L505.073 80.614L505.637 82.9051L509.115 86.4531L517.685 93.3827L517.559 96.6024L515.975 97.7493L516.758 101.278L508.969 107.844L511.026 113.538L514.374 112.192L513.464 114.993L512.462 115.12L513.739 116.848L513.355 122.251L515.904 122.851L516.158 125.853L518.723 124.979L525.839 126.744L527.131 134.475L526.605 138.186L529.933 141.805L529.369 145.589L537.197 152.101L536.396 153.356L538.088 155.43L541.528 155.921L542.237 158.632L546.515 159.342L547.552 160.669H545.368L542.875 163.343L540.434 163.579L539.708 164.525L540.526 165.78L552.483 170.928L554.451 173.62L560.383 174.748L561.093 176.476L564.659 175.894L565.988 178.114L573.266 179.933L572.322 181.533L572.52 184.989Z" fill="#F27C10" stroke="white" stroke-width="0.75" stroke-linecap="round"/>
<path d="M594.343 41.0401L596.368 40.4253L598.856 41.7386L601.593 40.9274L603.854 37.8878L612.691 39.3648L616.078 37.1238L616.866 38.2843L621.856 39.1593L621.394 36.6363L622.901 36.2834L623.447 34.8572L618.049 32.2633L616.777 26.2441L613.801 25.602L614.307 23.4501L613.474 22.2495L602.969 27.6957L596.628 29.2492L595.069 28.2178L592.018 28.8162L587.687 31.4411L585.805 35.1483L582.437 36.8491L582.489 39.2429L584.158 39.5976L585.525 39.554L586.258 42.9265L588.04 43.0665L589.845 41.3239L592.119 42.5536L594.343 41.0401Z" fill="#F27C10" stroke="white" stroke-width="0.75" stroke-linecap="round"/>
<path d="M594.343 41.0402L595.356 42.3445L595.129 46.0698L597.393 47.8034L597.185 50.2536L599.722 51.0285L599.546 53.1586L603.528 57.4643L601.75 58.412L601.839 61.8099L604.957 62.5357L605.477 66.3284L604.221 67.4253L606.336 69.6318L604.152 71.9838L602.396 73.0207L603.206 75.1362L598.099 70.7378L595.89 71.3144L593.298 74.1503L593.518 75.5582L595.724 76.2913L594.283 78.6597L593.043 78.2249L592.13 79.209L587.953 77.4846L587.512 78.7306L586.064 78.5887L583.549 80.5751L583.974 82.396L582.555 85.5956L580.504 84.9899L574.147 84.1386L573.149 82.6725L573.91 81.6974L573.024 80.7552L571.007 81.1918L568.327 79.2963L568.634 78.1558L568.601 75.2417L572.401 74.7178L571.521 69.3935L574.558 64.1947L572.795 62.4266L573.026 58.6467L571.271 58.1482L568.578 53.5188L566.388 52.8585L564.639 54.0481L559.449 54.5884L558.031 52.8003L558.575 49.3896L556.286 48.1672L560.865 45.5296L560.952 43.0757L567.542 43.9489L568.354 41.4422L570.045 41.6023L570.114 40.7874L574.043 43.4523L573.069 44.7147L573.026 49.6097L574.063 49.2495L574.016 50.9503L577.03 50.5119L578.391 49.8298L577.536 48.1563L579.929 45.4768L579.472 44.2344L583.818 42.2826L584.151 39.5959L585.518 39.5522L586.251 42.9247L588.033 43.0648L589.838 41.3222L592.111 42.5518L594.343 41.0402Z" fill="#F27C10" stroke="white" stroke-width="0.75" stroke-linecap="round"/>
<path d="M408.555 143.941L403.363 142.606L395.022 148.307L391.87 144.13L386.594 147.785L382.639 147.325L378.826 143.456L374.584 142.068L371.854 139.343L367.85 141.613L367.601 137.696L365.817 135.703L366.283 132.956L370.817 135.228L371.996 138.653L374.034 135.623L371.527 130.457L367.681 127.957L367.146 125.949L363.925 125.653L364.66 123.486L362.241 121.847L364.36 120.39L363.639 116.594L366.937 116.235L366.054 113.029L366.695 111.308L369.093 110.575L370.88 110.587L372.091 108.332L372.719 111.926L377.419 111.582L379.787 113.161L381.755 112.985L382.128 114.633L383.966 115.837L388.505 112.838L389.913 114.456L391.732 114.675L394.536 111.913L400.536 111.208L401.048 113.01L403.601 114.16L406.504 118.586L400.749 122.822L401.761 124.501L401.06 127.608L404.211 133.183L406.142 132.35L406.961 134.497L405.587 135.463L406.162 136.429L411.574 138.655L408.555 143.941Z" fill="#F27C10" stroke="white" stroke-width="0.75" stroke-linecap="round"/>
<path d="M655.123 33.7895L654.144 34.4261L653.383 33.6149L652.382 35.5267L645.86 37.8259L644.671 39.4121L645.435 41.675L640.651 42.9447L640.54 45.7496L638.258 45.5132L637.531 44.2398L635.486 44.6182L635.863 40.9565L637.628 39.1047L634.352 39.7614L630.213 38.9901L629.542 36.5817L627.598 39.1065L623.616 38.8391L621.856 39.1556L621.394 36.6326L622.901 36.2797L623.447 34.8536L618.049 32.2597L616.777 26.2405L613.801 25.5984L614.307 23.4465L613.474 22.2459L612.587 20.3432L613.454 18.2822L616.113 16.1649L621.207 14.997L624.151 16.5032L625.551 20.2159L630.8 21.4273L631.968 20.476L632.678 21.3491L635.673 20.6342L637.091 23.5429L639.79 23.9758L644.591 21.9858L647.61 22.0604L651.327 18.5533L650.819 16.6524L647.477 14.2913L651.969 14.4004L653.543 15.6828L653.052 16.8634L654.752 19.6974L654.564 20.6579L653.44 20.4596L655.887 22.7389L657.065 28.9672L656.927 30.5971L654.75 31.4902L655.123 33.7895Z" fill="#F27C10" stroke="white" stroke-width="0.75" stroke-linecap="round"/>
<path d="M356.003 95.351L354.834 97.1573L355.271 98.9109L352.536 100.27L352.205 99.0473L347.04 99.9514L346.916 101.276L345.154 102.105L343.675 101.108L342.253 103.646L341.028 103.32L341.549 106.86L339.037 107.699L338.586 110.338L337.097 111.202L340.632 113.134L338.242 117.003L339.163 120.326L341.331 120.41L339.869 122.475L342.011 122.036L341.223 127.846L345.546 127.353L346.044 129.181L345.14 129.116L345.558 130.364L343.22 135.372L340.291 137.102L342.033 137.462L342.692 138.904L331.602 149.151L333.568 152.118L337.45 149.267L338.52 151.119L339.142 150.36L344.54 151.987L351.918 147.421L355.272 149.315L360.974 167.085L361.545 165.031L363.1 165.106L366.905 159.858L369.875 158.564L372.376 158.926L375.109 153.347L376.824 152.09L374.582 142.069L371.852 139.344L367.848 141.615L367.599 137.698L365.815 135.704L366.281 132.958L370.814 135.23L371.994 138.655L374.032 135.624L371.524 130.458L367.679 127.959L367.144 125.951L363.922 125.654L364.658 123.488L362.239 121.849L364.357 120.392L363.637 116.596L366.934 116.237L366.052 113.03L366.692 111.309L369.091 110.576L367.628 106.569L368.31 104.814L370.998 103.52L369.26 102.875L367.04 104.728L366.643 103.73L369.031 102.171L369.721 100.375L364.758 98.8199L364.117 97.6703L362.748 99.2747L359.904 99.0564L360.326 94.9563L357.436 96.0514L356.003 95.351Z" fill="#F27C10" stroke="white" stroke-width="0.75" stroke-linecap="round"/>
<path d="M667.226 33.5294L668.267 30.8973L667.49 29.5385L669.253 27.4648L670.962 27.7249L671.018 25.3092L673.091 25.2928L672.425 24.0468L670.256 22.4679L671.226 18.3623L668.003 19.4665L666.11 18.1731L664.811 19.0881L660.517 15.4755L656.617 15.8193L655.744 13.7656L651.971 14.4005L653.545 15.6829L653.054 16.8634L654.754 19.6975L654.568 20.6579L653.443 20.4597L655.891 22.7389L657.069 28.9673L656.93 30.5971L654.754 31.4903L655.119 33.7932L657.214 33.5713L658.011 35.1647L658.373 33.815L660.383 32.8909L660.701 35.0501L665.639 35.9651L667.226 33.5294Z" fill="#F27C10" stroke="white" stroke-width="0.75" stroke-linecap="round"/>
<path d="M667.226 33.5294L668.929 32.9673L670.178 33.8786L672.342 38.6263L674.469 37.9314L674.835 38.9192L674.749 37.5167L677.112 38.579L678.786 41.9442L675.452 44.7528L673.59 44.0034L673.235 46.399L675.199 48.9129L674.518 49.7078L670.482 50.0207L666.551 53.8061L664.376 53.3114L659.791 55.0103L654.599 54.0299L653.698 56.4783L655.063 58.15L652.775 58.2882L651.532 61.517L646.464 64.0127L644.648 63.7108L645.004 61.97L642.702 60.9677L643.07 58.683L642.928 57.6461L644.486 56.7839L644.679 53.717L643.658 51.0921L641.432 50.6919L642.522 49.3895L640.607 48.3763L641.579 47.374L640.536 45.7533L640.647 42.9483L645.432 41.6786L644.668 39.4157L645.856 37.8295L652.379 35.5303L653.38 33.6185L654.14 34.4298L655.12 33.7931L657.214 33.5712L658.011 35.1647L658.374 33.8149L660.383 32.8909L660.701 35.0501L665.639 35.965L667.226 33.5294Z" fill="#F27C10" stroke="white" stroke-width="0.75" stroke-linecap="round"/>
<path d="M643.075 58.6831L642.933 57.6462L644.491 56.784L644.684 53.7171L643.663 51.0922L641.437 50.6921L642.527 49.3896L640.613 48.3764L641.585 47.3741L640.542 45.7534L638.26 45.5169L637.533 44.2436L635.488 44.6219L635.865 40.9602L637.63 39.1085L634.354 39.7651L630.215 38.9939L629.544 36.5854L627.6 39.1103L623.618 38.8429L623.582 41.7515L617.58 43.1431L618.098 46.8193L616.422 50.2355L618.823 49.4988L620.872 51.0977L620.391 53.8044L621.826 54.7067L623.678 54.1701L625.384 55.6307L625.187 58.0937L624.494 58.8886L625.575 60.9987L627.413 61.6699L626.568 60.2074L628.61 61.3043L629.293 59.3598L633.375 59.0705L633.853 56.4438L636.485 58.5648L643.075 58.6831Z" fill="black" stroke="white" stroke-width="0.75" stroke-linecap="round"/>
<path d="M514.407 73.2807L514.904 74.7268L512.826 75.9746L513.827 76.6422L510.15 77.8883L511.716 80.2185L511.781 85.6137L506.851 78.0556L505.224 78.3103L505.963 79.7128L505.071 80.6132L503.087 80.7023L501.533 77.5809L499.655 79.4363L499.844 81.63L498.474 84.1221L493.402 85.3972L493.065 81.3954L491.793 81.6573L490.53 77.4062L485.825 78.6923L487.055 87.7966L486.002 87.3254L482.671 89.8011L479.752 94.4651L477.399 95.6693L472.487 92.1968L472.07 93.2155L467.568 94.6925L463.675 94.9963L462.475 90.6979L463.768 87.1181L458.653 85.7756L458.022 83.3017L458.939 82.1739L462.99 82.5905L464.632 75.4835L466.543 73.4753L465.93 71.8818L469.542 72.0164L470.119 66.9668L471.686 67.3924L475.038 65.3715L475.153 62.019L472.707 61.4642L472.552 58.974L471.262 58.612L472.399 55.1376L474.849 55.2158L476.227 54.0989L478.973 52.1217L484.238 52.4927L487.092 50.3517L488.313 53.093L491.007 53.1076L492.586 51.3486L492.242 48.8783L493.103 50.6173L494.437 49.5332L495.698 50.8029L497.808 48.7037L497.959 46.1916L500.925 46.6809L501.799 45.7041L506.753 50.4863L509.592 47.7942L512.063 49.0748L511.266 50.3226L513.079 52.8529L511.131 53.9407L510.327 56.2436L512.274 58.0226L511.945 59.4942L509.35 60.2473L508.935 61.8007L510.129 63.6962L509.386 64.5784L507.75 66.2792L505.905 66.2519L506.776 67.6726L511.85 68.462L514.407 73.2807Z" fill="#F27C10" stroke="white" stroke-width="0.75" stroke-linecap="round"/>
<path d="M371.836 79.3473L377.23 75.9839L381.485 67.4872L384.843 63.9546L401.563 54.1409L404.73 54.0354L402.91 60.0073L399.308 64.5021L401.654 66.9578L400.5 68.2293L401.153 69.8137L397.284 69.9829L396.278 71.0834L394.046 70.0429L392.507 71.8947L393.076 73.2899L394.303 73.2244L393.229 75.0289L393.642 76.6842L391.218 79.2981L389.622 78.6197L388.044 79.6001L384.87 83.3728L383.227 83.1254L382.124 84.8771L382.069 83.4892L380.122 83.8166L378.249 81.2209L374.151 82.3105L371.836 79.3473Z" fill="#F27C10" stroke="white" stroke-width="0.75" stroke-linecap="round"/>
<path d="M580.51 84.9789L575.669 90.3815L572.357 92.0186L571.046 90.0904L569.117 90.054L567.607 91.7275L567.479 90.3087L565.732 93.0372L562.183 89.9631L563.676 97.9668L563.002 102.587L561.328 105.407L560.363 105.061L558.216 107.208L558.562 108.299L563.894 108.408L567.771 110.955L568.571 117.303L569.572 117.849L568.59 117.976L567.352 120.868L565.459 121.432C565.441 121.432 565.441 121.432 565.441 121.432L557.452 123.833L555.741 126.562L553.921 126.871L556.287 128.854L554.43 129.836L553.229 129.036L549.899 131.11L541.145 131.182L539.543 134.511L535.558 137.84L536.522 138.386L537.268 144.007L539.489 146.317L538.925 147.626L542.237 149.318L540.817 151.155L537.196 152.101L529.37 145.589L529.934 141.806L526.604 138.186L527.131 134.475L525.839 126.744L518.723 124.979L516.157 125.853L515.902 122.851L513.354 122.251L513.737 116.848L512.463 115.12L513.464 114.993L514.374 112.192L511.025 113.538L508.968 107.844L516.758 101.277L515.975 97.7485L517.559 96.6025L517.686 93.3829L509.114 86.4523L505.638 82.9052L505.074 80.6132L505.966 79.7037L505.219 78.3031L506.857 78.0484L511.771 85.6156L511.716 80.213L510.151 77.8847L513.828 76.6477L512.827 75.9747L514.901 74.7196L514.41 73.2825L515.375 71.8091L518.177 72.082L519.36 73.7737L521.308 74.1739L521.945 75.9929L523.419 76.0838L525.73 73.8828L530.353 75.5017L529.534 72.9733L531.463 67.0432L532.5 69.0442L536.522 67.6617L541.545 69.4444L547.715 66.7886L549.28 71.8455L546.35 72.9733L545.094 76.7933L550.226 77.3208L549.571 75.5199L551.992 74.3558L551.282 76.3385L552.483 77.7392L556.269 74.8833L561.219 73.9192L563.621 76.957L565.75 76.866L566.078 79.0852L568.644 78.1575L568.335 79.2853L571.01 81.1953L573.03 80.7588L573.922 81.6865L573.158 82.6687L574.159 84.1422L580.51 84.9789Z" fill="#F27C10" stroke="white" stroke-width="0.75" stroke-linecap="round"/>
<path d="M384.871 83.3682L385.922 83.7211L388.137 90.2896L391.26 89.3929L391.488 90.346L393.049 89.2346L395.382 92.5125L398.822 92.4379L400.493 94.106L403.625 93.9514L404.162 95.1556L407.887 95.734L410.601 98.5608L409.347 99.0719L407.758 102.903L405.734 103.543L402.966 102.108L400.995 102.401L398.857 104.966L399.304 106.692L396.48 108.693L394.529 111.912L391.724 114.674L389.906 114.456L388.498 112.837L383.959 115.836L382.121 114.632L381.747 112.984L379.78 113.16L377.412 111.581L372.712 111.925L372.084 108.331L370.873 110.586L369.086 110.574L367.623 106.566L368.305 104.811L370.993 103.518L369.255 102.872L367.035 104.725L366.638 103.727L369.026 102.168L369.716 100.373L364.753 98.8173L364.112 97.6676L362.744 99.272L359.899 99.0537L360.321 94.9536L357.431 96.0487L355.999 95.3556L356.58 93.9932L358.454 93.8386L357.781 92.1105L360.662 91.4193L361.14 88.2523L365.918 84.4251L364.704 84.4142L366.322 81.6256L368.928 83.6065L371.805 79.4409L374.149 82.3095L378.248 81.2199L380.12 83.8157L382.068 83.4883L382.122 84.8762L383.225 83.1245L384.871 83.3682Z" fill="#F27C10" stroke="white" stroke-width="0.75" stroke-linecap="round"/>
<path d="M753.896 313.632L638.348 343.573L633.252 341.954L604.351 358.162L525.876 418.663L526.149 417.917L494.245 392.123L509.223 385.52L521.526 359.89L524.401 357.907L543.493 291.13L549.262 276.305L549.844 263.354L550.663 245.363L562.966 232.066L572.138 215.131L568.116 194.321L572.521 184.99L579.655 191.356L581.311 187.973L597.326 187.682V189.719L599.747 193.011C599.747 193.011 599.219 203.253 599.747 203.089C600.293 202.943 604.916 206.891 604.916 206.891L606.663 210.601L608.1 212.184L613.105 213.785L613.469 224.535L625.153 240.07L628.866 240.452L642.061 245.163L647.083 247.182L651.688 249.238L654.691 250.711L660.86 251.439L733.167 243.69L753.896 313.632Z" fill="#F27C10"/>
<path d="M356.003 95.3509L356.583 93.9885L358.458 93.8339L357.785 92.1058L360.665 91.4146L361.144 88.2476L365.921 84.4204L364.708 84.4095L366.325 81.6209L368.932 83.6018L371.838 79.3471L365.592 77.6645L364.435 76.3293L364.944 74.9432L363.313 73.4043L361.528 73.4498L360.3 74.6703L357.57 74.8704L356.969 78.8741L352.432 82.3612L350.019 82.3812L349.28 80.9988L344.641 79.6563L343.274 82.092L341.724 82.554L340.279 81.4808L335.53 85.5991L337.971 88.1985L337.567 89.5027L339.401 89.5155L338.704 91.3691L337.079 91.8257L337.396 94.7197L337.418 93.5901L339.045 93.5083L338.677 92.4241L340.171 93.6192L343.028 93.6574L352.248 90.7033L353.661 96.0167L352.256 97.0426L352.206 99.0454L352.538 100.268L355.273 98.909L354.836 97.1554L356.003 95.3509Z" fill="#F27C10" stroke="white" stroke-width="0.75" stroke-linecap="round"/>
<path d="M462.741 247.491L464.053 263.153L455.59 272.522L417.225 296.496L388.434 316.834L362.902 295.168L364.394 289.748L359.077 285.473L357.531 282.162L357.478 278.761L359.315 276.578L357.04 272.922L359.298 270.72L357.57 268.575L358.66 267.028L358.332 265.282V265.263L359.588 265.154L358.352 261.008L358.607 253.403L360.517 249.365L362.518 247.873L366.303 248.746L368.034 240.761L373.476 230.284L372.692 225.936L373.419 223.153L371.636 221.152L372.129 219.096L370.617 218.241L371.127 214.894L373.966 213.33L375.039 210.457L373.822 209.655L375.441 207.855L373.911 203.398L379.225 179.569L377.732 174.149L381.592 172.092L380.21 171.892L378.879 168.636L377.514 168.127L377.877 163.306L375.967 161.942L372.692 163.416L372.384 158.923L375.114 153.338L376.822 152.083L374.584 142.061L378.827 143.461L382.647 147.318L386.597 147.79L391.874 144.135L395.021 148.299L403.357 142.606L408.564 143.934L415.789 145.444L414.551 154.32H414.57L424.651 153.793L425.035 157.14L427.073 160.014L428.636 162.67L428.347 164.472L432.367 166.235L435.297 169.491L441.65 168L444.979 170.892L446.017 173.711L445.562 178.55L448.22 179.296L448.439 181.097L450.514 182.934L449.022 185.535L448.51 190.737L454.188 191.247L453.808 194.303L460.211 196.359L463.997 195.54L463.617 202.634L456.354 202.889L457.518 204.49L457.247 207.273L462.907 219.224L463.944 230.466L465.362 236.177L465.382 236.196L467.438 244.436L462.741 247.491Z" fill="#F27C10" stroke="white" stroke-width="0.75" stroke-linecap="round"/>
<path d="M793.625 562.239L778.174 561.367L773.405 563.421L766.581 563.186L760.211 564.768L751.566 564.331L746.106 558.183L742.957 550.453L737.007 542.94H730.419L722.447 548.634L720.409 552.507H717.206L713.803 553.854L708.106 557.274L706.068 565.46L694.693 565.678L693.11 566.824H676.948L664.663 560.457L658.057 558.638L651.687 556.583L647.21 553.581L636.419 524.222L633.634 522.166L633.379 520.328L629.284 519.238L627.136 516.418L629.065 510.851L634.198 506.577L633.433 503.085L610.356 482.694L610.284 466.849L609.956 465.304L603.496 434.871L606.716 419.664L604.351 358.162L633.251 341.955L638.348 343.573L753.896 313.632L758.282 328.658L752.64 331.003L751.803 332.968L753.059 337.716L758.482 343.955L769.692 365.401L774.661 383.538L776.754 395.888L775.389 418.008L782.031 437.053L781.049 445.821L778.938 450.296L776.972 450.969L779.502 451.388L779.066 454.098L777.155 456.172L776.281 461.302L776.517 465.813L780.594 479.619L783.67 483.675L783.851 493.68L782.159 499.701L767.946 506.905L765.98 513.162L763.76 515.982L792.896 552.962L793.625 562.239Z" fill="#F27C10" stroke="white" stroke-width="0.75" stroke-linecap="round"/>
<path d="M568.643 78.1522L568.61 75.2381L572.41 74.7142L571.529 69.3899L574.566 64.1911L572.803 62.423L573.034 58.643L571.28 58.1446L568.586 53.5152L566.397 52.8549L564.648 54.0445L559.457 54.5848L558.04 52.7967L558.584 49.386L556.294 48.1636L555.683 50.2082L552.014 51.8799L551.95 56.4093L544.345 58.4066L542.93 55.3124L541.505 56.9823L539.029 56.8149L537.582 59.0741L534.473 60.6403L534.136 64.9787L531.465 67.0397L532.502 69.0479L536.526 67.6509L541.54 69.4481L547.71 66.7905L549.284 71.8365L546.341 72.9734L545.087 76.7843L550.223 77.3154L549.566 75.5128L551.985 74.3504L551.282 76.335L552.489 77.7283L556.26 74.887L561.21 73.9193L563.629 76.9552L565.752 76.8661L566.084 79.0799L568.643 78.1522Z" fill="#F27C10" stroke="white" stroke-width="0.75" stroke-linecap="round"/>
<path d="M502.247 43.3802L506.047 43.5949L508.533 42.2961L509.406 40.5061L517.987 41.7958L517.59 38.7144L520.168 38.1305L521.705 39.2074L521.405 36.8626L523.873 37.432L522.468 35.8622L523.17 33.2409L525.067 33.6611L525.394 32.5606L527.112 32.4205L527.194 31.0017L529.658 28.8862L529.413 26.6324L523.835 25.6792L517.934 27.5619L516.286 29.5246L509.279 33.1391L504.143 32.6388L503.65 33.7466L504.847 33.3555L504.902 35.2109L500.756 36.5661L499.555 35.6875L500.265 36.9645L499.011 37.9577L500.387 40.3406L501.999 39.7058L501.024 40.5771L501.879 42.136L501.18 42.8891L502.247 43.3802Z" fill="#F27C10" stroke="white" stroke-width="0.75" stroke-linecap="round"/>
<path d="M672.426 24.0495L673.092 25.2955L671.019 25.3119L670.963 27.7276L669.254 27.4674L667.49 29.5411L668.268 30.9L667.227 33.5321L668.93 32.97L670.178 33.8814L672.342 38.629L674.47 37.9342L674.836 38.9219L674.75 37.5194L677.112 38.5817L678.787 41.9469L681.304 41.9124L681.799 45.1139L683.297 42.8274L686.613 41.3285L686.019 39.9587L686.873 39.0856L691.106 37.6377L695.306 33.7631L696.972 33.5466L698.24 29.8176L697.468 27.7312L695.898 26.9981L701.303 26.0304L704.91 23.6238L705.234 22.6761L703.076 22.0631L703.438 18.0139L695.335 20.6351L692.735 19.4437L689.419 19.9403L687.632 18.3741L679.014 23.2418L672.426 24.0495Z" fill="#F27C10" stroke="white" stroke-width="0.75" stroke-linecap="round"/>
<path d="M247.207 471.361L241.164 491.297L237.926 493.225L223.931 492.206L216.922 495.081L212.701 498.682L199.633 516.363L194.102 528.587L168.295 528.169L155.191 540.811L131.604 548.506L11.562 456.972L17.3685 391.541L26.1743 388.412L38.498 379.226L47.6159 374.843L55.3324 369.386L60.9724 367.822L62.7924 364.619L71.8202 364.874L82.0846 358.962L96.9908 362.855L100.503 360.617L107.29 360.817L110.656 358.981L112.949 359.836L122.158 358.926L126.253 360.108L137.064 358.363L140.086 359.871L138.848 362.946L141.361 362.11L146.181 365.329L149.077 361.49L158.138 369.094L173.444 369.732L184.019 375.498L194.537 414.024L206.879 437.09L207.022 450.988L217.653 463.903L223.113 468.305L247.207 471.361Z" fill="#F27C10" stroke="white" stroke-width="0.75" stroke-linecap="round"/>
<path d="M429.42 76.786L430.825 78.0084L428.783 80.4368L427.498 80.1785L426.894 78.5541L425.087 79.54L425.462 82.5433L424.277 84.4987L426.725 87.5365L427.797 83.3564L430.106 85.0481L431.085 84.4969L433.548 85.8866L433.659 88.4606L437.213 88.1441L439.115 91.271L440.594 91.5529L440.907 89.6484L442.651 91.4165L449.561 90.6307L453.991 88.1986L452.974 89.4192L455.795 89.5411L455.74 91.2728L462.474 90.698L463.766 87.1181L458.652 85.7757L458.02 83.3018L458.938 82.174L462.989 82.5906L464.63 75.4836L461.788 75.2453L460.259 73.228L458.024 73.1279L457.223 71.4235L452.333 72.7132L452.344 70.8869L447.55 76.213L446.142 76.2476L445.414 74.1575L441.532 73.7009L438.056 71.5727L436.17 68.1602L433.952 70.2775L433.886 71.851L429.769 72.9788L430.468 73.6118L429.526 74.2175L429.42 76.786Z" fill="#F27C10" stroke="white" stroke-width="0.75" stroke-linecap="round"/>
<path d="M733.167 243.69L660.86 251.439L650.85 239.87L636.691 218.805L621.949 177.022L619.747 163.088L619.165 164.544L618.219 162.653L616.835 162.852L611.867 166.745L610.866 164.835L612.414 157.995L610.902 155.121L609.537 152.101L606.644 149.355L606.117 142.516L606.243 142.533L615.907 140.168L626.335 143.88L628.975 146.426L631.978 145.372V145.353L635.126 141.369L635.217 145.298L644.663 151.01L647.483 151.647L647.647 143.315L655.691 142.588L663.445 145.298L678.477 146.044L678.659 147.426L675.747 149.718L672.689 148.5L671.052 152.483L667.957 154.666L669.287 156.813L668.248 161.979L669.395 165.235L668.559 167.054L671.125 168.982L671.615 173.966L678.113 184.116L681.734 195.195L684.628 195.212L693.128 198.723L693.219 201.052L701.882 211.165L704.048 226.009L733.167 243.69Z" fill="#F27C10" stroke="white" stroke-width="0.75" stroke-linecap="round"/>
<path d="M656.038 120.033L656.201 117.14L655.291 117.412L656.092 114.957L657.293 113.192L659.604 113.374L661.187 117.703L659.822 121.36L660.988 123.089L660.933 126.18L657.092 133.347L655.691 142.588L647.647 143.315L647.483 151.647L644.663 151.01L635.217 145.298L635.126 141.369L634.179 137.858L636.091 134.148L635.8 127.799L637.11 123.452L635.618 123.815L636.381 121.996L634.471 120.086L635.198 119.213L633.125 119.341L631.777 122.451L629.811 123.543L628.647 119.65L630.121 118.195L629.011 117.321L629.921 116.266L627.482 112.174L626.009 111.901L626.755 110.355L625.954 107.899L628.319 105.298L627.901 100.514L630.904 97.9669L628.992 97.5849L629.302 94.9664L628.155 92.528L630.867 90.0187L635.271 88.9273L636.381 86.1796L635.035 83.4511L635.417 81.0317L636.836 83.9249L644.171 82.8153L645.3 83.7785L644.554 85.6339L647.538 86.507L649.286 82.8508L652.597 83.3428L652.815 82.3414L656.038 83.9422L655.909 87.8713L657.82 87.3256L658.566 84.7789L660.951 86.4534L660.623 87.5075L661.715 86.4161L662.443 86.9809L663.044 89.1628L664.3 89.272L665.5 91.1819L659.805 93.2375L660.023 97.6759L661.406 98.7318L659.969 100.878L661.879 103.715L659.277 108.154L656.91 109.627L654.381 116.194L656.038 120.033Z" fill="#F27C10" stroke="white" stroke-width="0.75" stroke-linecap="round"/>
<path d="M692.715 64.9186L688.756 62.9522L684.208 64.9731L681.924 64.6894L678.099 68.9677L675.147 69.0241L671.731 66.4756L671.008 68.9568L669.52 69.839L670.164 72.6349L665.041 73.0242L665.097 70.3356L660.232 68.6258L658.365 66.2046L657.182 62.3483L655.843 62.2664L655.073 58.1499L653.708 56.4782L654.609 54.0298L659.801 55.0103L664.386 53.3113L666.56 53.8061L670.491 50.0207L674.528 49.7078L675.209 48.9129L673.245 46.399L673.6 44.0033L675.462 44.7527L678.796 41.9442L681.313 41.9096L681.808 45.1111L683.306 42.8246L686.622 41.3257L692.436 42.8646L693.792 41.8987L695.934 43.0556L694.853 46.1789L695.547 48.4563L693.634 50.3972L694.353 51.8724L692.773 54.732L694.289 58.0535L692.709 60.8748L692.715 64.9186Z" fill="#F27C10" stroke="white" stroke-width="0.75" stroke-linecap="round"/>
<path d="M441.052 43.8504L439.054 48.338L441.638 53.082L444.311 51.0847L444.836 49.0638L451.921 50.5299L457.306 48.7673L462.271 50.2498L470.783 50.268L472.67 47.6049L475.523 48.1543L476.339 46.9901L475.533 45.5312L477.462 45.2766L480.15 42.2806L483.992 41.191L483.375 39.3301L483.129 36.698L473.687 41.8586L468.724 41.7877L467.849 39.925L465.709 39.4156L453.442 43.1119L449.236 42.6135L441.052 43.8504Z" fill="#F27C10" stroke="white" stroke-width="0.75" stroke-linecap="round"/>
<path d="M611.568 72.0484L605.047 71.288L604.155 71.9847L606.339 69.6327L604.224 67.4262L605.48 66.3294L604.959 62.5367L601.842 61.8109L601.753 58.4129L603.531 57.4652L599.549 53.1595L599.725 51.0295L597.188 50.2545L597.396 47.8043L595.132 46.0708L595.359 42.3454L594.345 41.0411L596.371 40.4263L598.859 41.7396L601.596 40.9284L603.856 37.8888L612.694 39.3658L616.081 37.1248L616.869 38.2853L621.859 39.1603L623.619 38.8437L623.583 41.7524L617.581 43.1439L618.099 46.8202L616.423 50.2364L618.824 49.4996L620.873 51.0986L620.392 53.8053L621.827 54.7075L623.679 54.1709L625.384 55.6316L625.188 58.0946L620.882 59.6644L620.587 64.7413L618.369 67.5299L616.945 67.3189L617.333 68.7214L616.032 67.7937L613.029 68.2048L611.568 72.0484Z" fill="#F27C10" stroke="white" stroke-width="0.75" stroke-linecap="round"/>
<path d="M476.229 54.099L470.782 50.2681L462.27 50.2499L457.305 48.7674L451.92 50.5301L444.835 49.0639L444.311 51.0849L441.637 53.0822L439.053 48.3381L434.996 51.3213L434.76 53.4533L437.482 56.4037L435.306 58.5302L438.634 59.5052L436.214 61.115L436.221 62.9686L437.458 64.2474L438.914 63.9218L438.447 65.9209L439.688 68.8441L441.996 70.4976L441.533 73.6973L445.415 74.1539L446.143 76.2439L447.552 76.2094L452.346 70.8832L452.335 72.7096L457.225 71.4199L458.026 73.1243L460.261 73.2243L461.789 75.2416L464.632 75.4799L466.543 73.4717L465.93 71.8783L469.542 72.0129L470.119 66.9632L471.686 67.3889L475.038 65.3679L475.153 62.0155L472.707 61.4606L472.552 58.9704L471.262 58.6084L472.399 55.134L474.849 55.2123L476.229 54.099Z" fill="#F27C10" stroke="white" stroke-width="0.75" stroke-linecap="round"/>
<path d="M379.225 179.569L373.911 203.398L375.441 207.855L373.822 209.655L375.039 210.457L373.966 213.33L371.127 214.894L370.617 218.241L372.129 219.096L371.636 221.152L373.419 223.153L372.692 225.936L373.476 230.284L368.034 240.761L365.067 245.128L360.68 244.182L357.386 246.601L345.028 243.144L334.418 248.783L333.872 245.946L331.36 245.872L332.344 240.652L329.74 240.434L329.449 236.087L334.673 231.376L324.171 222.916L319.842 220.77L313.744 210.438L316.039 209.674L316.729 205.308L312.725 201.506L309.194 195.285L309.54 190.61L312.669 183.68L312.488 180.187L310.339 176.513L307.065 175.585L307.446 173.966L309.778 172.274L308.776 167.69L310.943 157.323L317.513 152.538L326.592 152.592L328.83 150.027L331.597 149.154L333.583 152.119L337.458 149.263L338.53 151.119L339.152 150.355L344.537 151.992L351.926 147.426L355.276 149.318L360.972 167.09L361.555 165.035L363.1 165.107L366.906 159.85L369.891 158.56L372.384 158.923L372.692 163.416L375.967 161.942L377.877 163.306L377.514 168.127L378.879 168.636L380.21 171.892L381.592 172.092L377.732 174.149L379.225 179.569Z" fill="#F27C10" stroke="white" stroke-width="0.75" stroke-linecap="round"/>
<path d="M337.101 111.202L335.852 111.329L335.375 109.674L329.026 106.494L328.423 107.095L327.746 105.69L325.779 106.518L321.524 105.076L319.853 107.506L317.882 107.986L315.969 106.771L316.337 105.036L314.795 103.902L319.653 100.69L322.614 100.946L326.468 98.6853L330.154 88.4859L331.781 88.5496L335.53 85.5991L337.97 88.1985L337.566 89.5028L339.401 89.5155L338.704 91.3691L337.079 91.8257L337.395 94.7198L337.417 93.5901L339.044 93.5083L338.677 92.4241L340.171 93.6192L343.028 93.6574L352.248 90.7033L353.66 96.0167L352.255 97.0427L352.206 99.0454L347.041 99.9495L346.917 101.274L345.156 102.103L343.676 101.106L342.255 103.644L341.03 103.318L341.55 106.858L339.039 107.697L338.587 110.336L337.101 111.202Z" fill="#F27C10" stroke="white" stroke-width="0.75" stroke-linecap="round"/>
<path d="M572.138 215.131L562.965 232.066L550.663 245.363L549.843 263.354H544.094L540.145 260.916L535.557 257.278H530.59L525.895 254.095H513.301L510.843 251.985L502.691 251.439L499.961 250.457H493.282L491.007 248.801L481.907 246.218L473.572 242.58L465.382 236.196L465.362 236.177L463.944 230.466L462.907 219.224L482.615 217.496L492.39 214.567L507.95 218.278L507.348 213.004L500.689 208.946L514.975 208.291L516.687 206.945L517.488 207.527L518.25 206.163L518.795 207.092L520.454 206.381L525.332 208.4L526.732 207.636L550.536 209.274L572.138 215.131Z" fill="#F27C10" stroke="white" stroke-width="0.75" stroke-linecap="round"/>
<path d="M407.889 95.7331L404.163 95.1546L403.627 93.9504L400.494 94.1051L398.824 92.437L395.384 92.5116L393.051 89.2337L391.489 90.3451L391.262 89.3919L388.139 90.2887L385.924 83.7202L384.872 83.3673L388.046 79.5946L389.624 78.6142L391.22 79.2927L393.644 76.6787L393.231 75.0234L394.305 73.2189L393.078 73.2844L392.509 71.8892L394.048 70.0374L396.279 71.0779L397.286 69.9774L401.155 69.8082L400.502 68.2238L401.656 66.9523L399.31 64.4966L402.911 60.0018L406.651 60.5857L410.606 59.1287L411.456 62.5739L412.433 62.6121L410.928 65.6808L411.854 65.3952L412.799 69.0278L416.029 67.8218L415.398 68.2657L416.477 68.3403L417.462 70.4849L420.306 72.2766L425.471 70.7978L429.424 76.7769L430.829 77.9993L428.787 80.4277L427.502 80.1694L426.898 78.545L425.091 79.5309L425.466 82.5342L424.281 84.4896L421.644 85.5301L420.61 87.3237L416.865 86.9472L416.566 88.6079L415.09 88.4078L414.886 89.9868L412.677 90.1632L409.534 95.3984L407.889 95.7331Z" fill="#F27C10" stroke="white" stroke-width="0.75" stroke-linecap="round"/>
<path d="M612.795 187.391L597.325 187.682L581.311 187.973L582.512 184.844L581.274 181.952L580.638 173.529L578.653 169.728L580.218 162.452L583.803 153.92L577.124 147.99L578.417 144.625L576.232 142.151L579.673 139.75L578.363 138.604L580.364 137.458L580.527 137.567L584.531 140.223L606.117 142.516L606.644 149.354L609.537 152.101L610.902 155.121L612.414 157.995L610.866 164.834L609.665 165.944L609.575 168.491L611.648 173.22L611.721 177.859L609.975 179.806L612.122 182.479L612.795 187.391Z" fill="#F27C10" stroke="white" stroke-width="0.75" stroke-linecap="round"/>
<path d="M549.843 263.353L549.263 276.306L543.493 291.13L524.401 357.908L521.525 359.89L509.224 385.52L494.245 392.124L473.97 393.888L455.282 400.819L457.319 391.924L449.547 348.739L454.354 324.582L455.59 272.522L464.053 263.153L462.741 247.491L467.438 244.436L465.382 236.196L473.571 242.58L481.907 246.218L491.006 248.801L493.281 250.456H499.961L502.69 251.439L510.843 251.984L513.301 254.094H525.895L530.59 257.278H535.557L540.145 260.916L544.094 263.353H549.843Z" fill="#F27C10" stroke="white" stroke-width="0.75" stroke-linecap="round"/>
<path d="M581.274 181.952L582.511 184.844L581.31 187.973L579.654 191.356L572.52 184.989L572.32 181.533L573.266 179.933L565.986 178.113L564.658 175.894L561.091 176.476L560.381 174.748L554.448 173.62L552.482 170.928L540.525 165.78L539.706 164.525L540.434 163.579L542.873 163.343L545.366 160.669H547.55L546.513 159.341L542.236 158.632L541.526 155.921L538.087 155.43L536.394 153.356L537.195 152.101L540.816 151.155L542.236 149.318L538.924 147.626L539.488 146.317L537.268 144.007L536.521 138.386L535.557 137.84L539.543 134.511L541.144 131.182L549.898 131.11L553.228 129.036L554.43 129.836L556.286 128.854L553.92 126.871L555.74 126.562L557.451 123.833L565.44 121.432C565.44 121.432 565.44 121.432 565.458 121.432C568.716 121.596 572.247 121.723 572.247 121.723L573.612 125.307L575.323 126.78L575.596 128.672L577.87 130.364L579.472 132.128V134.857L580.528 137.567L580.364 137.458L578.362 138.604L579.672 139.75L576.233 142.151L578.416 144.625L577.124 147.99L583.803 153.92L580.218 162.452L578.653 169.728L580.637 173.53L581.274 181.952Z" fill="#F27C10" stroke="white" stroke-width="0.75" stroke-linecap="round"/>
<path d="M476.846 810.374L472.769 811.702L469.693 806.099L465.216 801.916L462.377 801.26L458.956 804.826L456.629 802.734L455.173 803.444L452.916 802.589L451.059 803.608L449.258 800.824L446.035 800.897L440.21 795.585L438.574 787.709L427.016 783.634L424.14 779.96L418.463 780.45L417.627 778.304L419.12 767.827L418.082 762.442L367.596 728.608L366.887 725.007L200.509 602.076L162.49 572.517H162.47L162.398 572.462L186.367 563.859L198.632 563.113L430.292 627.816L429.145 730.554L436.719 729.336L444.76 730.191L444.979 731.21L447.529 743.379L458.629 754.639L463.161 763.843L466.219 774.484L466.163 785.635L470.257 791.566L475.954 805.117L476.846 810.374Z" fill="#F27C10" stroke="white" stroke-width="0.75" stroke-linecap="round"/>
<path d="M388.09 317.234L372.746 334.459L365.522 347.029L346.978 360.071L344.191 369.621L346.048 381.991L344.938 386.939L336.802 393.814L334.347 395.907L313.979 396.743L289.885 403.328L277.454 420.245L265.553 429.214L262.402 436.052L251.212 449.75L245.097 469.087L247.207 471.361L223.113 468.305L217.653 463.903L207.022 450.988L206.879 437.09L194.537 414.024L184.019 375.498L173.444 369.731L158.138 369.094L149.077 361.49L156.737 351.686L156.793 349.194L158.631 346.465L173.371 335.988L186.987 330.094L199.087 319.234L206.222 316.96L218.471 315.541L222.931 313.886L223.438 317.853L224.912 319.434L226.061 325.129L226.732 326.71H231.628V324.782H235.961L237.891 323.31H244.151L245.732 321.926L248.246 319.998L250.976 321.253H256.545L265.645 312.722L283.28 312.958L285.1 310.903H304.773L307.284 309.193L312.614 308.52L315.129 311.486L322.973 310.685L324.228 309.32L330.359 309.084L333.089 307.156L343.098 306.81L344.812 305.337H349.468L354.822 310.339H358.568L361.298 314.214H376.767L379.846 315.905L388.09 317.234Z" fill="#F27C10" stroke="white" stroke-width="0.75" stroke-linecap="round"/>
<path d="M457.319 391.924L455.282 400.819L453.86 420.081L452.789 423.483L450.675 418.663L445.234 415.698L433.079 416.898L428.529 415.079L415.789 415.388L407.906 418.663L403.05 420.536L400.011 421.755L394.86 422.974H388.434L382.427 421.155L377.877 418.663H371.801L365.741 416.298L358.461 414.169L336.802 393.815L344.938 386.939L346.048 381.991L344.191 369.621L346.978 360.071L365.522 347.029L372.746 334.459L388.09 317.234L388.434 316.834L417.225 296.496L455.59 272.522L454.354 324.582L449.547 348.739L457.319 391.924Z" fill="#F27C10" stroke="white" stroke-width="0.75" stroke-linecap="round"/>
<path d="M660.86 251.439L654.69 250.711L651.687 249.238L647.083 247.182L642.06 245.163L628.865 240.452L625.153 240.07L613.469 224.535L613.105 213.785L608.1 212.184L606.662 210.601L604.915 206.891C604.915 206.891 600.292 202.943 599.746 203.089C599.218 203.252 599.746 193.011 599.746 193.011L597.326 189.719V187.682L612.795 187.39L612.122 182.479L609.974 179.805L611.721 177.859L611.649 173.22L609.574 168.491L609.665 165.944L610.866 164.834L611.867 166.744L616.835 162.852L618.219 162.652L619.165 164.543L619.747 163.088L621.949 177.022L636.691 218.805L650.85 239.87L660.86 251.439Z" fill="#F27C10" stroke="white" stroke-width="0.75" stroke-linecap="round"/>
<path d="M882.438 631.18L810.951 684.133L809.64 646.734L796.026 639.039L792.005 639.13L788.984 637.274L763.687 638.767L740.227 656.266L708.961 663.833L697.605 655.847L701.19 651.772L691.034 629.29L689.142 609.389L689.578 602.513L679.405 587.906L671.251 587.651L666.102 583.686L659.385 572.336L656.419 564.75L647.21 553.581L651.687 556.583L658.057 558.638L664.663 560.457L676.948 566.824H693.11L694.693 565.678L706.068 565.46L708.106 557.274L713.802 553.854L717.206 552.507H720.409L722.447 548.634L730.418 542.94H737.007L742.957 550.453L746.106 558.183L751.566 564.331L760.211 564.768L766.581 563.186L773.405 563.421L778.174 561.367L793.625 562.239L794.316 571.261L802.979 585.269L809.295 590.126L817.32 589.688L820.123 587.633L824 587.379L826.784 590.088L829.132 587.143L832.244 587.578L834.592 588.525L839.214 593.127L842.872 594.328L855.758 602.277L863.238 598.674L882.438 631.18Z" fill="#F27C10" stroke="white" stroke-width="0.75" stroke-linecap="round"/>
<path d="M609.956 465.303L597.326 464.958L595.051 468.596L591.192 473.034V476.891L593.231 482.002L587.553 489.97L584.695 492.243V496.682L575.723 505.777L571.956 506.686L569.79 510.67C569.79 510.67 568.097 510.998 567.406 510.67C566.732 510.325 564.567 508.506 564.567 508.506L552.737 509.179L538.178 524.877L533.519 525.55L528.514 520.784L526.457 522.367L529.533 527.26L531.353 529.079L532.718 536.701L529.879 539.083L529.533 543.176L535.102 552.617L524.637 562.84L521.562 561.476L519.632 562.84H513.954L512.808 560.457V552.508L508.039 552.617L502.234 559.438L483.579 560.112L478.465 554.764L471.076 553.636L467.2 550.343L461.067 551.471L457.536 548.633L454.57 551.708L453.205 558.292L452.404 562.167L449.346 576.938L447.526 583.304L430.091 597.274L429.818 557.365L414.222 535.3L409.29 524.313L422.903 510.343L425.068 505.886L429.855 504.413L431.475 505.886L434.641 505.522L434.896 507.014L439.173 503.958L440.028 487.805L444.687 476.09L441.32 471.033L441.229 459.737L444.615 453.953L446.089 435.617L451.858 426.467L452.713 423.702L452.786 423.484L453.86 420.082L455.279 400.819L473.97 393.888L494.244 392.124L526.148 417.918L525.875 418.663L604.351 358.162L606.716 419.664L603.495 434.871L609.956 465.303Z" fill="#F27C10" stroke="white" stroke-width="0.75" stroke-linecap="round"/>
<path d="M706.195 760.369L693.874 769.337L624.607 837.969L514.483 863.017L505.183 855.905L504.255 853.795L508.059 848.592L508.732 845.482L511.407 842.644L509.733 838.733L510.388 836.951L508.623 834.113L509.606 830.948L508.623 829.292L509.369 822.544L497.467 816.796L485.983 814.376L480.377 814.413L475.463 811.811L472.77 811.702L476.847 810.374L475.955 805.117L470.258 791.566L466.164 785.636L466.218 774.485L463.161 763.844L458.629 754.639L447.527 743.379L444.979 731.21L463.161 730.937L464.708 729.173L493.353 729.391L495.865 725.316L499.505 726.444L502.235 733.029L505.42 739.177L507.913 747.363L513.373 747.818L518.159 754.421L526.804 754.858L529.989 757.823L536.814 759.878L540.453 764.426V768.5L542.728 771.229V776.249L541.582 778.978L540.453 787.837L542.965 790.565H550.918L560.254 781.234L568.207 779.651L570.264 771.229L571.611 767.591L570.264 763.516L571.847 756.913L575.724 754.639L579.582 756.004L587.08 756.458L596.653 762.607L614.161 762.37L618.929 767.591H641.678V759.642L644.408 754.184L647.138 747.581L649.195 740.778L651.47 736.231H662.608L679.224 748.273L683.319 748.964L685.357 747.145H690.143C690.143 747.145 699.698 754.858 700.826 756.24C701.336 756.84 703.702 758.587 706.195 760.369Z" fill="#F27C10" stroke="white" stroke-width="0.75" stroke-linecap="round"/>
</svg>
